<?xml version="1.0" encoding="UTF-8"?>
<svg xmlns="http://www.w3.org/2000/svg" xmlns:xlink="http://www.w3.org/1999/xlink" viewBox="0 0 64 64" width="64px" height="64px">
<defs>
<radialGradient id="radial0" gradientUnits="userSpaceOnUse" cx="113" cy="113" fx="113" fy="113" r="116.538307" gradientTransform="matrix(0.283186,0,0,0.283186,0,0)">
<stop offset="0" style="stop-color:rgb(90.196079%,49.411765%,13.333334%);stop-opacity:1;"/>
<stop offset="0" style="stop-color:rgb(94.901961%,87.843138%,73.333335%);stop-opacity:1;"/>
<stop offset="0.011" style="stop-color:rgb(94.901961%,87.843138%,73.725492%);stop-opacity:1;"/>
<stop offset="0.362" style="stop-color:rgb(97.647059%,92.941177%,82.352942%);stop-opacity:1;"/>
<stop offset="0.699" style="stop-color:rgb(99.607843%,95.686275%,87.450981%);stop-opacity:1;"/>
<stop offset="1" style="stop-color:rgb(100%,96.862745%,89.411765%);stop-opacity:1;"/>
</radialGradient>
<linearGradient id="linear0" gradientUnits="userSpaceOnUse" x1="116.53125" y1="204.8125" x2="116.53125" y2="21.1875" gradientTransform="matrix(0.283186,0,0,0.283186,0,0)">
<stop offset="0" style="stop-color:rgb(25.490198%,74.901962%,92.54902%);stop-opacity:1;"/>
<stop offset="0.232" style="stop-color:rgb(29.803923%,77.254903%,93.725491%);stop-opacity:1;"/>
<stop offset="0.644" style="stop-color:rgb(41.960785%,83.137256%,96.470588%);stop-opacity:1;"/>
<stop offset="1" style="stop-color:rgb(54.11765%,89.411765%,99.215686%);stop-opacity:1;"/>
</linearGradient>
<linearGradient id="linear1" gradientUnits="userSpaceOnUse" x1="137.291473" y1="71.052277" x2="164.040695" y2="44.303059" gradientTransform="matrix(0.283186,0,0,0.283186,0,0)">
<stop offset="0" style="stop-color:rgb(77.64706%,93.725491%,99.215686%);stop-opacity:1;"/>
<stop offset="0.375" style="stop-color:rgb(71.764708%,92.54902%,99.215686%);stop-opacity:1;"/>
<stop offset="1" style="stop-color:rgb(58.431375%,90.196079%,99.215686%);stop-opacity:1;"/>
</linearGradient>
<linearGradient id="linear2" gradientUnits="userSpaceOnUse" x1="160.671875" y1="85.043091" x2="160.671875" y2="63.855591" gradientTransform="matrix(0.283186,0,0,0.283186,0,0)">
<stop offset="0" style="stop-color:rgb(25.882354%,77.64706%,93.333334%);stop-opacity:1;"/>
<stop offset="0.48" style="stop-color:rgb(23.137255%,76.47059%,92.941177%);stop-opacity:1;"/>
<stop offset="1" style="stop-color:rgb(18.039216%,74.509805%,91.764706%);stop-opacity:1;"/>
</linearGradient>
<linearGradient id="linear3" gradientUnits="userSpaceOnUse" x1="77.6875" y1="74.15625" x2="77.6875" y2="21.1875" gradientTransform="matrix(0.283186,0,0,0.283186,0,0)">
<stop offset="0" style="stop-color:rgb(50.588238%,86.274511%,96.862745%);stop-opacity:1;"/>
<stop offset="0.48" style="stop-color:rgb(54.901963%,88.235295%,97.647059%);stop-opacity:1;"/>
<stop offset="1" style="stop-color:rgb(61.960787%,90.980393%,99.215686%);stop-opacity:1;"/>
</linearGradient>
<linearGradient id="linear4" gradientUnits="userSpaceOnUse" x1="146.546875" y1="144.78125" x2="146.546875" y2="204.8125" gradientTransform="matrix(0.283186,0,0,0.283186,0,0)">
<stop offset="0" style="stop-color:rgb(27.843139%,76.47059%,93.333334%);stop-opacity:1;"/>
<stop offset="0.98" style="stop-color:rgb(19.607843%,70.980394%,90.980393%);stop-opacity:1;"/>
<stop offset="1" style="stop-color:rgb(19.607843%,70.980394%,90.980393%);stop-opacity:1;"/>
</linearGradient>
</defs>
<g id="surface101645444">
<path style=" stroke:none;fill-rule:nonzero;fill:url(#radial0);" d="M 55.453125 45.667969 C 55.953125 46.566406 56.957031 47.003906 57.984375 47 C 59.734375 46.992188 61.140625 48.484375 60.988281 50.261719 C 60.855469 51.839844 59.433594 53 57.851562 53 L 48 53 L 48 54 L 7 54 C 5.289062 54 3.914062 52.570312 4.003906 50.839844 C 4.089844 49.214844 5.546875 48 7.171875 48 L 8 48 C 9.214844 48 10.175781 46.917969 9.972656 45.664062 C 9.8125 44.679688 8.890625 44 7.894531 44 L 3 44 C 1.289062 44 -0.0859375 42.570312 0.00390625 40.839844 C 0.0898438 39.214844 1.546875 38 3.171875 38 L 9.5 38 C 10.882812 38 12 36.882812 12 35.5 C 12 34.117188 10.882812 33 9.5 33 C 8.117188 33 7 31.882812 7 30.5 C 7 29.117188 8.117188 28 9.5 28 L 18 28 L 18 21 L 10.5 21 C 8.503906 21 6.898438 19.328125 7.003906 17.3125 C 7.105469 15.417969 8.804688 14 10.699219 14 L 18 14 L 18 10 L 56.5 10 C 58.496094 10 60.101562 11.671875 59.996094 13.6875 C 59.894531 15.582031 58.195312 17 56.300781 17 L 53.5 17 C 51.503906 17 49.898438 18.671875 50.003906 20.6875 C 50.105469 22.582031 51.804688 24 53.699219 24 L 56 24 C 57.777344 24 59.195312 25.546875 58.976562 27.367188 C 58.800781 28.875 57.433594 29.9375 55.914062 30 C 54.71875 30.050781 53.792969 31.152344 54.039062 32.40625 C 54.226562 33.355469 55.121094 34 56.089844 34 L 60.5 34 C 62.496094 34 64.101562 35.671875 63.996094 37.6875 C 63.894531 39.582031 62.195312 41 60.300781 41 L 58 41 C 55.808594 41 54.164062 43.351562 55.453125 45.667969 Z M 2.5 33 C 3.882812 33 5 31.882812 5 30.5 C 5 29.117188 3.882812 28 2.5 28 C 1.117188 28 0 29.117188 0 30.5 C 0 31.882812 1.117188 33 2.5 33 Z M 2.5 33 C 3.882812 33 5 31.882812 5 30.5 C 5 29.117188 3.882812 28 2.5 28 C 1.117188 28 0 29.117188 0 30.5 C 0 31.882812 1.117188 33 2.5 33 Z M 2.5 33 "/>
<path style=" stroke:none;fill-rule:nonzero;fill:url(#linear0);" d="M 50 58 L 16 58 C 14.34375 58 13 56.65625 13 55 L 13 9 C 13 7.34375 14.34375 6 16 6 L 36.757812 6 C 37.554688 6 38.316406 6.316406 38.878906 6.878906 L 52.121094 20.121094 C 52.683594 20.683594 53 21.445312 53 22.242188 L 53 55 C 53 56.65625 51.65625 58 50 58 Z M 50 58 "/>
<path style=" stroke:none;fill-rule:nonzero;fill:url(#linear1);" d="M 52.121094 20.121094 L 38.878906 6.878906 C 38.621094 6.625 38.320312 6.425781 38 6.277344 L 38 18 C 38 19.65625 39.34375 21 41 21 L 52.722656 21 C 52.574219 20.679688 52.378906 20.378906 52.121094 20.121094 Z M 52.121094 20.121094 "/>
<path style=" stroke:none;fill-rule:nonzero;fill:url(#linear2);" d="M 41 21 C 39.34375 21 38 19.65625 38 18 L 38 21 C 38 22.65625 39.34375 24 41 24 L 53 24 L 53 22.242188 C 53 21.808594 52.898438 21.386719 52.722656 21 Z M 41 21 "/>
<path style=" stroke:none;fill-rule:nonzero;fill:url(#linear3);" d="M 21.5 21 L 13 21 L 13 9 C 13 7.34375 14.34375 6 16 6 L 25.5 6 C 26.882812 6 28 7.117188 28 8.5 C 28 9.882812 26.882812 11 25.5 11 L 20.5 11 C 19.117188 11 18 12.117188 18 13.5 C 18 14.882812 19.117188 16 20.5 16 L 21.5 16 C 22.882812 16 24 17.117188 24 18.5 C 24 19.882812 22.882812 21 21.5 21 Z M 29 17 C 27.894531 17 27 17.894531 27 19 C 27 20.105469 27.894531 21 29 21 C 30.105469 21 31 20.105469 31 19 C 31 17.894531 30.105469 17 29 17 Z M 29 17 "/>
<path style=" stroke:none;fill-rule:nonzero;fill:url(#linear4);" d="M 44 41 L 53 41 L 53 55 C 53 56.65625 51.65625 58 50 58 L 33 58 C 31.34375 58 30 56.65625 30 55 C 30 53.34375 31.34375 52 33 52 L 44.5 52 C 45.882812 52 47 50.882812 47 49.5 C 47 48.117188 45.882812 47 44.5 47 L 44 47 C 42.34375 47 41 45.65625 41 44 C 41 42.34375 42.34375 41 44 41 Z M 36 41 C 34.34375 41 33 42.34375 33 44 C 33 45.65625 34.34375 47 36 47 C 37.65625 47 39 45.65625 39 44 C 39 42.34375 37.65625 41 36 41 Z M 36 41 "/>
</g>
</svg>
